<mxfile host="app.diagrams.net" agent="Mozilla/5.0 (X11; Ubuntu; Linux x86_64; rv:141.0) Gecko/20100101 Firefox/141.0" version="28.0.9">
  <diagram name="Page-1" id="oQ_WK57JXiTOHTjXtdAx">
    <mxGraphModel dx="1058" dy="848" grid="1" gridSize="10" guides="1" tooltips="1" connect="1" arrows="1" fold="1" page="1" pageScale="1" pageWidth="2339" pageHeight="3300" math="0" shadow="0">
      <root>
        <mxCell id="0" />
        <mxCell id="1" parent="0" />
        <mxCell id="c36mthqJlk9yNhMlftQ6-3" value="" style="shape=image;verticalLabelPosition=bottom;labelBackgroundColor=default;verticalAlign=top;aspect=fixed;imageAspect=0;image=data:image/png,iVBORw0KGgoAAAANSUhEUgAABDcAAAC+CAYAAAAhveTUAAAABHNCSVQICAgIfAhkiAAAABl0RVh0U29mdHdhcmUAZ25vbWUtc2NyZWVuc2hvdO8Dvz4AAAA9aVRYdENyZWF0aW9uIFRpbWUAAAAAADIwMjXlubQwOOaciDEx5pelIOaYn+acn+S4gCAxMeaXtjU35YiGMDXnp5IklUrqAAAgAElEQVR4nO3deXhM5//G8Xsy2UQijRBEEmvsW1G10yq62NuqKml1p3T5Kt1XXVSVn9qKoqItrbXWllbtlFLUvqQqsYWIEMlkmTm/P4hmHUlkmWnfr+tyOZmZ88zzmUyec+ae55xjslgshgAAAAAAAJyUS3F3AAAAAAAA4GYQbgAAAAAAAKdGuAEAAAAAAJwa4QYAAAAAAHBqhBsAAAAAAMCpEW4AAAAAAACnRrgBAAAAAACcmmvywaO5eqB7reqF3BUAAAAAAIC8c41fuipXDyxNuAEAAAAAAByQ6chtdxu5eWDwhsWF3RcAAAAAAIA8c00+fKxAG5w/f74uX76smJgYnThxQsOGDVNwcHCGx3z11Vf6448/1KhRoyzr7969Wx06dFDXrl0z3L5v3z5NnTpVoaGhKlmy5PXb4+LidPToUQ0ZMkQ1a9Ys0FoAAAAAAIDjcy3oBsPDwxUVFXX95wcffDBLuLFs2TJFRERow4YN2bZx8eLFLOHGrl27tGHDhhzXufPOOwk3HNjJjTM0Y8FWHb9SQsG39dTjYe0V4nH1PiNunxbPmK2f952Xzb+WOjzyhO5v4CdT8XY5d2xx2vv9WE080FhvvdNNgVlO0ZugjWOHaOofKRlvdmusZ8e/qJYesdq38jstXLtbxy/Y5B1UTx37Pqb7avk4dv3W09ry7Tda9vthnb4s+QTWUfs+A9Sjnq+dftt0fstkfTDtmJq+8qn61TTnsx3HkLpnul74bJ0up819c62t/qNfVcfS2fc86eSvmjL6e7n1G6+BTVzz3Y5DSY7W7p+Xa/XWPxVxLkQPf/qC2nhn6rcRpwPLZuvb1bt1MsFdAbXa6sHHHlCTMmZZI77TayOW64w1/QpmVejylj7qXVXmoqwlj5JPbtZ34Yu0+WiMbD6V1Pi+/up/V1V5Zf61Gef044ev6NvDqdduMOmWO4drzGN15ZqXdhxE9u9jQwkRqzRr5jLtPJWiUtVaqfcTD+v2cpl3MZJ0/NfZmvPjLh07lyDXW0LUsFM/hXWurpImSUrWyY1f57itcATZ1W/EH9WaefO16vejOpdcQuVqtdFDAx5Qo9LZnLPdel47vpuuOesP66JreTW89zE9fk+oSpoMWSI3a+H3K7Tl0GklupVRteY99djDLVShwPfU8i/b+i/s0oLZi7TpQKQuWr1ULrSl7n/sId0WkOkvOHW3vnx+jNbHZ5ww7BraVyPf7CyvQys0e96v2vP3BaW4+6vKbV0V9khbBbsXVXU3lv3736q/5r2u95eeVtpQZg7qrvdG3K+QnAYx47L2hH+g/9tUWc9NGqgmrrrhWOEIstZvKHrlCL0656hS0z/Q5KO2Q8fpyQbZ9TxV57bN0mczLujuUS+rfSmTbriv5FVoJeVJTr//8zsXKHzeOu0/myyvwPrq8PCj6lY3636MkRChNd98rWXbj+uSubSqNe+hRx9urYrusrutLF43GptyO/6nNZegqO2rtOLX7dp//LLqPTNGTzZyleOO//brz/34b2/758jjf+77lnpylcZ8NFfxnUfo3W4Vs161xM72L/5gwY3/Bf6STZo0SampqVqzZo0mTJiQ7WPKlCmj6OhohYeHZ7nvsccek6trzt0aOXKkatSocf3nHTt26MMPP7S7DorfhPCjqvXU2xoYGK2fpkzRhPnlNeKRWvIwYrVp5iStsd6n5z9qKvPubzVh8pfyH/Gy7ijjGHv3huW4tm6IU7UODRVw/S/VqgsHftbieSu047RFSWVzWttLLZ4br8ZpW30jTr9PH6mFri1Uu4RkXDmhvZE+avv4G3rGL0F/LvhC30xZpGqfhqm2g7yls63fxU/BjTvpyU5PyM98WUdWTtWUmctUd9QjqpHDdjg54gdN+O6wrOZ0D8hHO0Ut+9+/ZEuyyFqjrz4d1kGlTZJMLjK7Zn3PGgmR2rp8gRavO6Q4i00NM92f23aKS071G4lHtHj0JO0oe5e6hw3XU4Gl5Z31k70ubw3XhDUmPThsrFr4xWrLrDGa9lU5VR3aXn6Ve+n9iV1lu/bolL+X6dPP96vJbUEOE2xkW7/1uJZMDNexRkP0wUvVpKNLNGH8JC2uNFJ9a7hmbkCJSaXU/uWP1b+2qySTTC7mqxvfvLRTVIxLOrRhp2wN2qn2Lf/8Pu29j42EPZozfrHOtxqo95/3VcSiiZo+yVeBb3dTcIZfpLv8qzRTt+e6K9DH0IU/F2ryrNla0+AddQ10UcrRxTlvKxy4/uQz+3VETfTI8AEqZz2m5V/O0JQ5lTV6ULNroU0am06vmqypO/zV95WRqpmwUTMnTtDsgA/1TNMSijm4X/E1e+mlR4LlemqNvpoyQ+GBNTS8g3/Rhb35qN9Uqrzqte+vVv3LyCPxhH79apJmLKyphs82UYb9Utd6CvtssvpeyzaMxIP6buQMnW/RSP4mk0wBNdSidyP1Luel5DNbNWfibM2t0lAvty/CsDsf9UuSJTFFgV3f0Vs9QmSWZDK5yJzjIGbV6Z8na8bOxIyvj72xoqjkuX6TynYcrgnt0kZxm6LXjten64LUolrWFyD57B/6ceECrd4To6SUqunusb+vVGTyM/5F/6ypU3eqwhNv6fP6JXTqlyka+8UcBX3yrJpkCGWStO+78VoYe5de+vQVBSbu0XfjpmnqT1X0TtdAXbG3rSyqP4Bs67fZHZuU6/H/avu7v/5Es/4K1T3dnlKPquXk5331He6447/9+nM//tvb/hkOPP7brz/tUcaVvfp2wgqddJF8s23c3vbPW14FOP4X+JgZFBQkSSpbNsdPezKbzTKZTKpcuXKW+0wmk0ymnMuoUKFChvUiIyOvrwfHFVuvqx5oGqSSpiD16tpQG2dt0IEHa6lh/A5t2FdK7d7orJoBZqnDA7pj/bvasC1a7e7108l14Zq5aLuOx1nlWaap+r3+jFoW2Sh/TcIRrV36t7zuyPjhLuFsjHzaD9Hr1sV679ecVze7e8nr2h5M4t7v9MPhqur9YbOrGyvvhnpo4D+byfYdm2j5rpM6e8VQbd8URTpq/SZPBdVtIMlQymWLzJI8A8rLN6euWQ5r4YxtqtS/j4JnzfvndrvtJDtu/TKUeOWK5O0rX3c3udlb34jVuaQaevi1Dto3dqIuZbzTTjuOXH+Kjv0wQxvL9de7TzWWT45dsulcZJRSKnVXs2BvechbLZpW1bcLoxVrk/zMbvL0ula17Yx+WvSrjA7D1KWKuxy6/qRTijp3i+reVkv+nmapdnPVL/OzTpxLlrKEGwlKSCypUqXc5eaWaU/Pbju24qnfdlF7V/2k1KA2qn1Luv7aeR8n/rlBv9ua6bluDVTBXSr/4D3aOHylNh2/T30yfMAxyadyA9WVZEuO02UXyeQdoICSJkmpOrJps2LrPZTttqKROVrb5kzX95uOKCbJXX517tfL/+uYzWy5oq/fo3o3PXv9nOtl1bn5j9r8+xldNJRx59Yapa0b/1ZI54FqW6WMTOqqni02aMz6XYpv0loVOz6lp9MeW+4eta32s5acOS+b/GW2Om79ci2vWg0lGalKSDXLJDeVLeefTUBplnsJr2sf6FP114oF2nZLV717Z/mrjy0dqkalJcNqUex5F8nsp/JlPa7u2Dpy/bIp4UqivMr5ysPN7YY74qmRP2rGqhLqFdZaK6fFpHsOO2OFA9dvcvWU17Vhz4jbrCUrz6vp0y+oTslsXolL0bpUoate7nhWM0cdynCX3X0lB67feiZKp9xqqOut5eXlKlVr0VhBi7foXLyhDFPwjDhFRcWrQrNmqubrIZPvrWpWq4R2nI2RTeXtbytVnPWb7Y5NSbke/w0l7P5esw7U07NvP6wanumf2JHHf/v153r8t7v9c3Hg8d9+/WZJMi7rjzmzdazJk+oR9bmy/Uh0g+2fTwGO/w7y3TDyzYjR5i/HapVvf73Vu6bDfNuZmX9wRXle+yP3CApROcvvioqxqV5MpE4pUB0Cr/XcpbxCgty0MvKkrPFHNP/bQwp6+kMNb+Aty7k4udziKCGWWUHt++pBGbq8LperGOe0celvKtHhNd2ebQqQosi9B5RQqaVq+phkxG9z4PolKVW/Txqo8VuTZfKtr0eGt1G5bAeaZB35IVy7a/bTWw0Nzc1lO45dv6H4uHjZzvyuHxbHKbBqfTWuV1Els6nfVLKBuvVrIFmPaH8e2nHo+lMOav2ms0otOV9vPjNRV9zKqvYdfTSgZyOVzjAImVWxQQPdsma55m4O1kP1k/Xzz8cU3LaHKmX+nH/gJ/10up4eGlJFbnLw+kvUUMOal7Ro/grVfaKDyh75UVuTmqlPg2y+YrTG61J8vGJ/XaRlISGqdWsjVS/tfsN2jPhNDlV/zu9jq6KjTiql/F2qeC2nMpUKUrDvBUWdTJBRLfMhdobifh2ll2buk9W1rJo/+aqa+pqu7/j718lhW3FuicJ/K6kH3p6gln6punDRKv+C3rGzw/7fcTrWc9q3L1pl6tbJOh6mnFLkuZIKCrrl2mtiVsVKgbLtPqEzNskn/WepS/v1Z6S36nQKlouk1H0OXr/1oGa/PFKrYwx5Ve+uoZ0r2d0fMS5v17K1SWoxsJ3Kp58RF/WD3nlrgf62uSuowxA9UefqJyCHrt9I0KXLKYr98yctslZU5bqN1bBSqezrt57UqvC18nvgTbX0X62VGe7Leaxw6Pqvs+rEz8u1P/BuvV/PK9uQxz20s/qFSrbTy3J+smz2lRy5fnOVhqrnMl2LFzRS2a5VdX7lOp2t01FNy2Z6BUz+qtOwohat/l5rqvdTc8/ftXq3t1o/U1OuN9hWpu4p3vrTyzg25WH8NxK0a+02Xbb4a/qwX3XO4qHAhp3V/9H7VNPbscf/9DKPzRnYG/+vrp399u8Gz1Hc7397fZMMXdn9neZGNdegR6vr9KQcVszF9q+gxn/CjUKTqG2jH9ErW9vqs29fVOPCOmbUuKQDa3/Wbw16KFeXvSkmHp6e1wcBk2cJecgiS5IhJVmU5FZCHi7pH+uu1ItJsppLyNP1is7+fUbx9euqTGC5IuyxVX8tfF+f/XxONiNViQmpOv78Tpnlqtp9P9Dg1qXyPE0q9ehqrY6srR6DQ7LZ6bHq3JbpmrSulHq90kkVXCQ5fP2uajpwsr54OEq7lkzXrLFfK2DEADXM9G2N9eRqzd0epPvfqSMv7cvmuXJox6Hr91Gpht3Uv1SMLpw6ql+mzdf8Kg/r1Rc6qEKeEkaTnXYct/5BoZGKSiynxgOe1/31ysh0Zp2mffaFZpT9WEPbZTxfjkfNLnqo8Q5NmTNWu76K1WXv2/Vs88CMfwNGrLau3CqPdsPV9No0EJMD1z+4dRm16X2PNn60QlM/WKFLFwxV7TlctTOfb0SSXILUtn9PnY47rxM75mvpdz+o7fOvqW89b5lMObdjshRt/al7w/Xq5K1KMGxKTrRIo4ZonYtJ7k2f0ujHG9ndWUiyJEmeHvK4Xr6HSnhISYlJknwyPdok3zuGa0qzGB3fNl/TvhqrBQHvqXdViyxJOW8rTB4l5J50QlGn4mQtX0HlyztO/dcZcdozZ7yWJHXUi92rZVnHSLLIYvNQubS9d5nk6ekhWSyypNuAGwlH9MP4b3Wq6VN6veHVD4kOX7+5lvqPnqJuZ/Zp9VfTNW5agN5/vrWyP3WQTafX/aS95e/SiDoZvr6VS1B3vTelg6KPrNe30yZrfNm39fo9gQ5ev7tCOz+mLtGxOhOxSbMXfqfl3YZpeLeqmabTG7qw6Xv94nGvXmvmK9PfmZqxN1Y4dP3XJOzWj+uuqNmTbRRwEzlsdvtKjly/yaex7u+5Xu/NnaVR66/ogqWcOr50q/yzvAZmBXfso3ZbxmjhhCOad/GiXOv3V+8qV98l9raVVgepP+vYZM39+G87rROnbApuNUCD7qkq35S/tGLSGE2cE6iRT5RzivE/u7H5uhuM/9eqyn77V/2febuOPP5nW3/yUS39/pgaPtpfld0Mnc7hOXKz/Suo8f8/Gm4kaOXQO/Vu3Av6YerDGb41KDhm+ZQLUeVKAfIupnTNkSRZkmSTZJZkWBKVJE95epgkD095pFxRki39Y5Pl6uEh1xK3qt+LFzR//ld6c7VZNe54UI/0aqqczlFUsMwKuft/GtHeKtvFDZo0Jkp3vv2warua5FYyPyf7TNbBjduU0KC/GmeZw29V9OYpGjUnVm2ef0kdK14rsERjx6/f5KoSfpXV4uFe+nPbFG0+2E8Nm6RL8ox47Vzyi3TnsKt1p2b3XDm148j1m+RTuanaVJakzura+Rd9+vpiLd/XVk82sHuQSib22nHg+s+nKEUlVDYwQN7uLlJIO3VouFgT90cotV2TdIfXGIrZMF3hUS01/NP7Vc0WpU2zx2v62CUq/17P67M3jJjt2nQ4QC37pvu215Hf/8mHNX/yr7ql/wd6vZWv4vYt1ZRJYzWj/IcadHum4NO1nOq2Kqe6knTvfbo9/C2NXbRRHeverYAUe+0Ubf2uNe/Xmx90kc16Uis/m63Uh4ara4hZJg/vG+4oeHh6SElJSro+CztJiUnXbs+WSW4lyyi0fT912fmiFv8WofurlZGnR87bCnOlXnoxbJHmff++XppTWa169NWDrYKvf8tXnPVLkoyL2hX+qaYdqaNnhvVS9Ww6ZvLwlKdLkizXkwxDFkuS5Ol/vQ7jyiEtHDNev5V9RMP6Nbh+yJe5hoPXL0lmD/lWbKyeDx3WbyM3a/elVroju1mK1kht2Xxa1Ts1V+YvtyXJxd1b5everb4dt+vNLb/rdOduqujI9ZtKKKhha109KLuL7ms0Sa9PX6Lf73xBrdIHnsmHtXL5OTV7uo3KmCRr5nbsjRWOXL+kq9/ebtIu92Z6KVNglTfZ7ys58vvfGrVSXyxKVpe3Ruvu8hYd/Xm6JkyYqHLvv6K70qc8Rrz++HqqdoU+p5EDGsg9eqfmTZymMXPK64NH6+iKvW2lA9Sf09iU+/E/VSkpkndARfl7ucqkUHVqV0vL5h9QpFHJ4cf/nOq/eueNx/9/ZLP9q3515r0jj//Z981QzKbF+i3gPr1Tw0OSJeeqc7H9kwpm/Odjd6FxV+3+/6eZn/XNcgj2f1FMZNT1ZC4p6oSiPSsqyN9F5sBgBeqkIk9d28zbzuhEVIoCQwLlIpN8QjtqwGujNHp4R5k3f6Evf4kushkqZi9f+ZUurdK3eMnVxUPepUurdGk/+XjkYzSx/qXde5NUu3FtZdzsG0o48J3GfXNeLZ5/Sd1C0yfB/4L6rUf1x54YHZn7ih4LC1PY46O09uJ5rfposKbuyinpSOM89bv4BSvIO1GX4pJvqn8Z23Hc+k2+/vIzxSg65p+TyKUkW2V2z3S8uXFJf249IJ8mzVXV0ySTV7Badm+nimf369DFfzZwcX/u0vGARmqUYR6n49Zv/Wu7tl2opua3+cssV5Wu21X3NLTq0P4TWT+wZOCp4JBy0uWLumTTDdop4vrdSuoWv9Iq7ecrT7NZnqX8VLq0n/xK3iisMysgqKLcTp/QyWsXOjAuRSkyrrSCKmY/Nf0fxj//mXwVFOSd47ZCphIKad1XQ0eO0Vu9/LX3q4la9rf9VztP8l2/JKXo+NLxmnawhp4Z3lcNcjr5kFuggsteUVTUxWuVW3Xy71NyCQy++iWL9azWTZmoTaX7avhTLVQ2w+lKHLn+zOy/S21ndmv3uSpq3OBGJ4pL147T1G9SyeBg+dkuKS7TVWGsJ/7QrrNRWv7e4woLC9OAt5foZMIWjXv6M224kvk1yzhWOH79STq4+6A8G9yqqjezz5vTvpLD1m/TmZ2/6URgMzUPdJPMPqp+Vxfd7nNM+yOSMj409ZB+22Gofst68jGZ5FGusXrcFaq4gwd1JvUG28rirj/HsSkP47/JT/5+0vnomGsnETeUmpIiubnJzdHHf3tjc27H/yyMDP859PifU9+MBO3/44Bidk7V84+GKSzsaU3eYdHx+W/olblHM+4P3Wj7l0X+x3/CjRwYCUe1fPQQPdixpZq37KBeA0dq0YH4DJvslFMbNOWV/rqvXXPd1qyl2t/zgAYM+1YHrJJk1b7xvdT8/gnan/b6G3HaO+8jPdurg1o2b6F29zysd1eekS3r0+dTsrZ80EnNuo/VnnSfGy+vHKrWzQdqQXSMFj7XXI0bN87wr2nXz3T1c2aKTm2Yolce66EOrZqr3X1heiP8D8WmdTB5v+a+8bR633OHWjRrphZ39NLorUnZ9CMrv73LtGDHScWc+kOLlu6Wd4s2qu0umfyaqE3dS1q7cLWORJ/TsTUL9Ov5mmrTrJxcUqN17NApxSWmyNUvRBVLSYkJSQ59+M1VVkX9OlXjvt6mmGudtUUf0ZFLQQqtlumYfFuUVn+7Xl73PaEuld2UmpKilJRUWQ1JDly/kXBM27fsV+S5C7pw5qi2fLdYO1waqEkNN2Wo39xIT0+epfDw8Kv/ZgxX+1vKqNPrE/R0I1f77Thw/bJF68DvBxQZHavY6L+1c+libY2vrDqhJWTK5vefr3YcuH5TyXq6vV6qti1dqSNxFsUdWakfd3uoyW2hck1fv0qqQkVfRe9crz1nE5ScEK2963fotHeQKl7/2iNFEYf/VolqoRkP6XHg+l3KBqq86Yg2b4hQXFKS4o5v1KaDqaoQVE7mDL9/Q1eO79KuY6cVExuj04fW6/tVh+Vdq46CzDdox4Hrz6xE/TZq6rJNi5bu1ZnzJ7R1wUodC2ytVlXMMi7t0fzPJ2vlsSTJiNXBLdt1+OR5xcac0qG132r5wVt0a+PKMstVoa1a5ritMC4c18HIWCUkm1QqqKJKmy1KSCzuyq8yLmzQ9yssavf4g6pdIlUpKSlKSU2VzVDG+s1Bat66kk6smqcNx8/r7IHlWrTVqsZtb5W3ydCVnQu1IKqh+vdrKl9bilJSUpSaapUhx64/NXKnNu45rrMXLij6+A4tnrdRl0ObqG4pU8b6JUmGrhw7rDNlQlUtw4cAm87u2aidx87oQux5Re79UXNXn1SFxo1U3sWx6zdij2jn3uM6eyFW5yP3avWCdTpVtpZqlXHJUL+5eh99+lX49e3hzPe7qaJXC70wdajalJTdscKR65ckWSN16KhVVUIrZZjpkPX3b19O+0qOW79JfoEV5HFim9YdjJEl+YpO/r5Bey4GKCjQLdPffzkFBsRr78ZtiopPluXCYa3d+pfcKwapjNn+trJ467c/NuV6/Hcpq8bNKuv8hsVafyJeiRf+1NLVh1WmaVOFmB15/L/R2JzL8d/u9s+Rx387fTOVVJv/zfhnHz98qgY28VTlBz7UJ32qyyXX27+CHf+ZU5Ad2yktee0ZfXiwpvoPGaXby1zSzu8mauTAv2T5apIermyWEbteHz0zTL/43Ktn335ONUtZFfXj/+nDn/bqjFWqneW4+1QdDX9JAyefU+OwF/RJ0/IyXTwtI7RMASZM7mrQ8jaVXLpd247b1KC6i6Rk7f9jr1Kr9datZfxU5s1v1eDK1bQi6fA3euO9VfK+p6NCXQ3Fbxuj54avUYV+L2rkyxWUsPMbjZ70P40o/b1Gdykrl+Tj+u2XXXLt8a7GdKwg14R4eYXmLtUf3K+qpn/9noZdKaGQ2/po8APXLu1k8lOrAYN0bnq4xr42T4Z/bXUY+KTalTHJiDmq1TO/0e9n42V19VVg3fvU986gIk/kTKU76rXP87JGqi5GHdGhY+UUb5P8zZLt7CmddS+n8pkSXePyUR06maBDc1/TU9fPtOmqBk+M0//qOW79RvwZ7V69SF9Nj1GCvFS2WlP1GfqQbvO5etWDzPXnxF47jvz7NyzR2vfz11oXcVbxVk/5hdTTXYOfVMfyLpKScl+/nXYcuX6ZblHLxwbp3MxvNG7oIllKVFSTnkPUp34JZazfVTV6Dlafb7/W7HcH60KSu0pXaaz7Bz+gOmlHL9ku6PSZJJW5PSDDeTiMOMet31S6rZ54Nkaz5/2fXv76suQdqNptntETd5aVKUP9hpKPb9HiJXsUGWuRi3d5hd7WX/97sP7VbyXttKOLm4unfnOI7v/g4zytYvJqoIcH99DMmVP05vJklarWWk8MulfBZsmWGK2Iw4dUqkWyjMqXFbltiVaEn9JFi1k+FWqq+eP/0wN1rk5fdqveQ4P7Xc5mW2Eo4cRGfT19nU5eSpHZu5xqtOuvewvjetH5qN/61yEdTYzU3hHP6vppEs1V1fujt3WvS7r6q3moQqeBeir2S80dOVwXzRXU8N7n1L+J99VQ9NARXT5/XmOH/HOWapeyd+uNUQ+rosPWbyjh/EGtm7tF4dHxsnqWVuWG9+nFvncqwJTp91/NQybZdPbkWRnlWigg07efF//arPlrZuvMpRS5+wapTtvn9EKXEJkd/fcfe0Rr5/ykQ6cvKcXNV4G1W+iZF3qqqmt29efE0KUcxwrHrl+SjMTTOn3RV8HlMp1lJNf1X5X9vpKhRIet3ySvJo9o8JmvNXfK6/ohzqoSAaG6/dFB6hJilnE2ff1Bumfg47o8e7E+fnGqEl18FdSgkwb1byZvk8nOtrK467fZGZv6KjS34381D5Xv+Iyejp2p7z9+QbOtpVSlRZgGd6969cOow47/9uuvktvx3+72z5HH/xv8/u3t4ybmdvuXVKDjv2mfb2iuvgiqdvbP3DzsuqVLl+qdd97RuHHj1KZNmwz3Pffcc9q7d6/Wrct6mYk77rhD1atX17Rp0zLc/s033+izzz7TrFmzVL9+/eu3b9iwQS+88ILee+89de3aNZe9s3/OjdQ9Y3X/kz/q1tEL9E5b76uDccI2jew9WGtbjteS12/TmVkD1Hual4bOn6gHy7tIMhSzYJDuG+unj9d8pDvcrdo3/kE9sfZOzfh+sOokb9C7XYfqz67TNeeF+iqw84va/tL0/g9rfuu1vU8AABR8SURBVIMJWvpKU5kvrdKr3d7SmQHzNPPRELlYD2tK3zAtbz5VC19q8M+xU5e3a/RjQ/RjxeH6amwvBbuc08LBPTTe+x0tHtnp6qU4jTitGHqvRqQM14rPu8vvygq9dNf7Mr39i8bcW7KgKgAAAAAA4KZwWEoWNsUcOKAzLnXVrIn3PymzV0Pd3sBDsQcP6JQtSYf2HZER2lItAnL3ElpP7NX+y6XUqFmtggs2smEq1VKdW3np0Np1OmWTbOd3aeeJW9S8Za1/pukYMVo76h3Nt3TSm+/0VLBZUmqEDhxJ0uU1b6lzi+Zq3ry5mrforHfXW2Q9f/bG0+sBAAAAACgmHJaSHeOGB8or1WqTzK52r+OeuU1DysdVNvLKW83vvUO+Q1dp9Ym+6rl3s/Z7N1e/BtfngOvcqlH6eLWneo0bpvbXr1VlyDBcVK7LCI17tEbGN4a7nyoSgwEAAAAAHBQfWbNwkX+tWgqw7df2nVf+uTlxj7b9mSTfGjUV6OKpylWDZBzbqd2XcjelwRxcQ9VLXNIf2w8puYB7bDJJxrXwRJK8mvXSfYFHtHzpNm1ct0uerTqoybVzM9nOr9Lo0etUqs/bGnJ7ukt6mquoVnWzzh36WwqqrMqV0/0L9FV+zpcOAAAAAEBR+E+HG8blv/XHtt/0229p/7Zp19/xMjfoowG3J2vFR69o8oqt2vnbKn35+vtaFNdAj/a9Te4yq2b33mpiW6vRw8ZpyZZd+mPTUn296qhyvLhlyTZ65KHqOv3tqxo2cYnWb9+h7Rt/0srfz8omQ7G/vquu7brrg/Vx10IKQ7Frrt724YZL12+LWf2WuqS/zVRKt/hKsTt/1tqjcVevvOJWR70eqKfTi97XxC0eatOxqbwkybikTRPHaY2thR64w1unjh7V0aNHdTTirOJNAerUv4vKH5up4a9N1bIN27Vj+0b99P1C/Xau4K7nAgAAAABAQftPH5aSeuR7vTHo+3S3uCiw75da/HIj9Rw5Webx/6dZn72krxI8VaF+Bw2d9LweuHYBb5egB/TR/yVrzISFGj9srhK8KqleeTeZTC45HHrioXrPjNeEUuM1ad7/6dVZ8ZJ3edV75CN1bBpw9XK+hpHxiBjDyDAj45+b091mKq27nnhSv474RqNmtVDbEe3lIRdV7NpfHb4aqhUl+6jrbdembaTu07qN52SNPatRA9KdzNX9Tn3862h1bjlcX3xWVuOnLdVnw79UvOGlslVv1xNNe+j2svl/nQEAAAAAKEz/0XDDS/d8tlX32HtIyZrq/upkdX81pwe4yO/Wfhoxvd+1n206Ou0R9bvor9IukmRW3SELtXVI+lX81fiRd/XlI1lb87vzXS29M/0tJvl1eE/LOmS8zb/jCC3vmPG2Uo2f1PhFT2Zoz1SyiqpV8FTNtj10/XQbbi305urf9WaORbspsPXT+rj109nf7X2vxm69N8e1AQAAAAAoDoUebkRHR+v48eMZbktMTMzx8YZhKCkpKcs6sbGxkiSbLftDJM6dO6fjx4/L1dVVQUFBN9Xn3DAu79aKlSflU6Wi/EsaunjoZ02f85cCu7+qWsUWGSXr7NFjumJK0ZEfxmjWhbs14sFquT/pKQAAAAAATqjQz7nx4YcfqlevXhn+7dq1K8eQIjExUXv37s2yzowZMyRJFosl2/UmTJigXr16adCgQTfsU+PGjXP8l1vGhePaumyKPnj5WQ14bJDenLFH/vd/rHEDGxbqpV7tsv6t5e8/rYf6DtaEfdX14thhalWq8K/PkhthYWHF3YViRf3U/19G/dT/X0b91P9fRv3U/19G/UVff6HNMahVq5bat2+vkJAQ+fr6ZrjvyJEjql69erbrderUSampqapRo0aG26OjoxUZGamKFStmuL1y5cpq3bq1QkJC5O/vLx8fnxv2befOnXmsJiuXSt01Irz7TbdToMyhejx8gx4v7n4AAAAAAFCECi3cCA0N1ZgxY/K83ogRI/L0+ODgYH3++ed5fh7cnLgZc+Veq5pKtLzN7uMSN29XyqFjRdQrAAAAAMB/0X/6UrDIP5/unXXmyaE62WOAEjdvz3J/4ubtOtljgM48OVTe3ToXQw8BAAAAAP8V/9GrpeBmufj7qezIN3T2qZd1qufj8mzRVKWHXz3fyYVRk2TZ8rskqdy00XLx9yvOrgIAAAAA/uUIN5Bv3t0668qSVYpfukqWLb/rVM/Hs9zPrA0AAAAAQGFzdatepbj7ACdW9pM3lbB5u2wxsRluT5vZAQAAAABAYXP17nF3cfcBTiz94SnplR35BoejAAAAAACKhKt3107F3Qc4ufSHp6T9zOEoAAAAAICi4uJeq7py8w+wp+wnb8rF3y/Ph6OEhYXl6faiWqegn78g26J+6i/sdaif+gvy+QuyLeqn/sJeh/qpvyCfvyDbon7qL+x1/g31c0JRFIj0oQaHowAAAAAAihLhBgoMh6IAAAAAAIqDS3F3AAAAAAAA4GYQbgAAAAAAAKdGuAEAAAAAAJwa4QYAAAAAAHBqhBsAAAAAAMCpEW4AAAAAAACnRrgBAAAAAACcmslisRjF3QkAAAAAAID8YuYGAAAAAABwaoQbAAAAAADAqRFuAAAAAAAAp0a4AQAAAAAAnBrhBgAAAAAAcGqEGwAAAAAAwKkRbgAAAAAAAKdGuAEAAAAAAJwa4QYAAAAAAHBqhBsAAAAAAMCpEW4AAAAAAACnRrgBAAAAAACcGuEGAAAAAABwaqbevXsbuXlgeHh4YfcFRaBPnz4F3ubcuXMLvE0AAAAAAHKLmRu4aYURmAAAAAAAkFuEGygQBBwAAAAAgOJCuIECQ8ABAAAAACgOrsX1xK1bt5YkVa1aNct9Nzq/R1hYWJ6eKz/tRURESJI2btyYp+cqDNn1L60me/cVhz59+nAODgAAAABAkWLmBgocMzgAAAAAAEUpzzM3jLh9Wjxjtn7ed142/1rq8MgTur+Bn0x5bCdtxkZ+ZhkU9MyE7NrL6+yQwmSvfwX6WpgD1DzsOT3aobb8Uk9qx+IpmvzDQcXn6no6GTGDAwAAAABQVPI2c8OI1aaZk7TG2lbPf/SRht7lqo2Tv9Ta8/n49AsH46KKXV7SkNsvacG7Q/TSmK0q1WuYnrrdJ8/BVRpmcAAAAAAAikKewg0jdoc27Culdg90Vs2AAFXv8IDuKHNIG7ZFF1b/UFTMIWrTvor+WhquX46e1ek9CzV3vVW3dWgqn/ymGyLgAAAAAAAUvjyFG9ZTkTqlQIUEmq+tXV4hQW46FXmyMPqGouQepErl43XiRKyuzsNJVeRfkXIJrqzAmzwzCwEHAAAAAKAw5e1ja5JFSW4l5JFuLQ9Pd6Vakgq4WyhqJo8S8jQlyWJJO8TIUGKiRfIsoRI3MXMjzaJFi1hmmWWWWWaZZZZZZplllllmuVCWTb17987VCTPCw8OVunemXhp3Rf0nDlYzd0lK1R9ThmiK8ZS+eLZxbpq5rlBOiFmA/q39y3EWRYnWemXGY4r96FlN/TNVkkmlOrypqQ9G6d3nZuqgNf995cSiAAAAAIDClKeZG+bAYAXqpCJPXfukazujE1EpCgwJLIy+oSglR+nvM94KCUm78o2rgqsEyRb5t07Z8t8swQYAAAAAoLDlKdww+TVRm7qXtHbhah2JPqdjaxbo1/M11aZZucLqH4qK9YQ2rP1LVbr2051VA1Shfg891MZV23/Zrsv5vBgOwQYAAAAAoCi45unRJj+1GjBI56aHa+xr82T411aHgU+qXRn7J2VIO4QivYiIiDw9dVFL6192fb/RoSDZrWNPftpLWyc//cueTSeXjdX40oP12IgJ8ks9pR2LR2vab5eVn2yDYAMAAAAAUFTyFm5IMvnWVc//faKehdEbFC9rtLbOfFtbZ95cMwQbAAAAAICilKcTisL5FfZlWQk2AAAAAABFLW+XggXsINgAAAAAABQHwg0UCIINAAAAAEBxIdzATSPYAAAAAAAUJ5PFYsnnhT5zlvkKHjld2YPbi/b24pTXK8gAAAAAAJBbhRJuAAAAAAAAFBUOSwEAAAAAAE6NcAMAAAAAADg1wg0AAAAAAODUCDcAAAAAAIBTI9wAAAAAAABOjXADAAAAAAA4NcINAAAAAADg1Ag3AAAAAACAUyPcAAAAAAAATo1wAwAAAAAAODXCDQAAAAAA4NQINwAAAAAAgFMz9e7d28jNA8PDwwu7LygCk/t6FXibA79NKPA24Vhat26tqlWrXv85IiJCGzduzPX9AADnxPgPAP9Nzjj+uxbrs+NfYXJfLwKOf7mqVatmCDjDwsLydD8AwDkx/gPAf5Mzjv8cloICURgzQgAAAAAAyA3CDRQYAg4AAAAAQHEotsNSWrduLUkZjtNJc6Pze+R1ykt+2ouIiJCkYj9uSMq+f2k12buvOHCICgAAAACgqDFzAwWOGRwAAAAAgKKUv5kbtjjt/X6sJh5orLfe6abAfEQkaTM28jPLoKBnJmTXniOcECWNvf4V/CwNd5VqOVE9BgZp5+B7tTcuVxfTyYIZHAAAAACAopLHcMOqCwd+1uJ5K7TjtEVJZQunUygeruW7qPHD76lRo0pyc9t+0+0RcAAAAAAAikKe51wknI2RT/sher13KNeR/bfxrSavqJFa/NEYXbAWTJMcogIAAAAAKGx5DDfMCmrfVw+2raZSnK3jXyf10DitnTdP5+ILKNm4hoADAAAAAFCYiChQJBYtWsTyv3g5Nja22PvAMssss8xy0S8z/rPMMsss/zeXHXH8N/Xu3TtXZ4zMeOJKQ5fXfaahv9TQu+/m74SihXdCzILxb+1fbmZRmCq+oj6j2uvPQfk/oWh6nHfD+YWFhWV4r+X1ZwCAc2L8B4D/Jmcc/5m5gUJFsAEAAAAAKGyEGyg0BBsAAAAAgKJQJBc8STuEIr2IiIiieOp8S+tfdn2/0XSb7NaxJz/tpa2Tn/4VBYINAAAAAEBRyWe4YZJPu5c1tV3BdgaOwTj5ieY88km+1yfYAAAAAAAUpSKZueEIMwnyauPGjflet6Drtdeeo722BBsAAAAAgKLGOTdQYAg2AAAAAADFgXADBYJgAwAAAABQXAg3cNMINgAAAAAAxcm1MM7ZkPkKHjld2YPbi/Z2qfiCiLxeQQaOJfPVjSIiIjL8Tm90PwDAOTH+A8B/kzOO/yaLxWIUaw8AAAAAAABuAoelAAAAAAAAp0a4AQAAAAAAnBrhBgAAAAAAcGqEGwAAAAAAwKkRbgAAAAAAAKdGuAEAAAAAAJwa4QYAAAAAAHBqhBsAAAAAAMCpEW4AAAAAAACnRrgBAAAAAACcGuEGAAAAAABwaoQbAAAAAADAqZl69+5t5OaB4eHhhd0XFIG9np4F3mY9i6XA2wQAAAAAILeYuYGbVhiBCQAAAAAAuUW4gQJBwAEAAAAAKC6EGygwBBwAAAAAgOLgWlxP3Lp1a0lS1apVs9x3o/N7hIWF5em58tNeRESEJGnjxo15eq7CkF3/0mqyd19x2OvpyTk4AAAAAABFipkbKHDM4AAAAAAAFKW8zdywxmrfyu+0cO1uHb9gk3dQPXXs+5juq+UjUx6fOG3GRn5mGRT0zITs2svr7JDCZK9/BfdaeMqjxxuq+MajKlW/rHT6D10cNViRX+yUNVfX08mIGRwAAAAAgKKSp5kbRuIJ7Y30UdvH39DHHw5Vt4C/tHDKIh1MLazuoci4BKhkpyqyjOmrg3WbKGLqJfmOnaGA+vk/cokZHAAAAACAopCnT64m74Z6aGDD6z+379hEy3ed1Nkrhmr75nXuBhyK7YQuDOp3/UfL2C906dVweVY1S3vyn14xgwMAAAAAUNhu4pwbKYrce0AJleqppg/Bxr+LSea2nVUyea0ubUu56daYwQEAAAAAKEz5DDesOrdluiatK6Vej3dSBU5L+q/iUn+Qqky/RwkvDNGFU7YCaXPRokUss8wyyyyzzDLLLLPMMssss1woy6bevXvn6nSR/5y40qrozVM0ak6s2jz/krqFeuX5ZKJSYZwQs2D9W/t3o1kULg1fULXlQ2V8dJ8iJv2pgog2OCwFAAAAAFCY8jjnwlDCge807pvzanETwQYcVIVeCln0ijTqXoINAAAAAIDTyFu4YYvS6m/Xy+u+J9SlsptSU1KUkpKar0uFwtF4yue1T+W753X9Pe2o5OkpF08Pmdzyf8wRwQYAAAAAoCjk6WopxuWjOnQyQYfmvqan5v7TRIMnxunldj45rpd2CEV6EREReXnqIpfWv+z6fqNDQbJbx578tJe2Tn76ly1zVXm3CpZr45mqnzDz2o2GrF/30O7+S5TX/IpgAwAAAABQVPJ2KVjfOzR8xh2F1RcUJ+t+nW7irtMF0BTBBgAAAACgKOXjhKJwZoV9WVaCDQAAAABAUeMirigwBBsAAAAAgOJAuIECQbABAAAAACguhBu4aQQbAAAAAIDiZLJYLAV+IdfMV/DI6coe3F60txenvF5BBgAAAACA3CqUcAMAAAAAAKCocFgKAAAAAABwaoQbAAAAAADAqRFuAAAAAAAAp0a4AQAAAAAAnBrhBgAAAAAAcGqEGwAAAAAAwKkRbgAAAAAAAKdGuAEAAAAAAJwa4QYAAAAAAHBqhBsAAAAAAMCpEW4AAAAAAACnRrgBAAAAAACcGuEGAAAAAABwaoQbAAAAAADAqRFuAAAAAAAAp0a4AQAAAAAAnBrhBgAAAAAAcGqEGwAAAAAAwKkRbgAAAAAAAKdGuAEAAAAAAJwa4QYAAAAAAHBqhBsAAAAAAMCpEW4AAAAAAACnRrgBAAAAAACcGuEGAAAAAABwaoQbAAAAAADAqRFuAAAAAAAAp0a4AQAAAAAAnBrhBgAAAAAAcGqEGwAAAAAAwKkRbgAAAAAAAKdGuAEAAAAAAJwa4QYAAAAAAHBqhBsAAAAAAMCpEW4AAAAAAACnRrgBAAAAAACcGuEGAAAAAABwaoQbAAAAAADAqf0/OnzOqZSVS4MAAAAASUVORK5CYII=;" vertex="1" parent="1">
          <mxGeometry x="330" y="390" width="851.84" height="150" as="geometry" />
        </mxCell>
        <mxCell id="c36mthqJlk9yNhMlftQ6-5" value="" style="endArrow=classicThin;startArrow=classicThin;html=1;rounded=0;fillColor=#f8cecc;strokeColor=#FF0000;startFill=1;endFill=1;strokeWidth=1;startSize=1;endSize=1;" edge="1" parent="1">
          <mxGeometry width="50" height="50" relative="1" as="geometry">
            <mxPoint x="550" y="448" as="sourcePoint" />
            <mxPoint x="843" y="448" as="targetPoint" />
          </mxGeometry>
        </mxCell>
        <mxCell id="c36mthqJlk9yNhMlftQ6-6" value="&lt;font&gt;&lt;span style=&quot;color: rgb(255, 0, 0);&quot;&gt;During deep-sleep&lt;/span&gt;&lt;/font&gt;" style="text;strokeColor=none;align=center;fillColor=none;html=1;verticalAlign=middle;whiteSpace=wrap;rounded=0;" vertex="1" parent="1">
          <mxGeometry x="582" y="424" width="230" height="30" as="geometry" />
        </mxCell>
        <mxCell id="c36mthqJlk9yNhMlftQ6-8" value="" style="endArrow=none;html=1;rounded=0;strokeColor=#FF0000;" edge="1" parent="1">
          <mxGeometry width="50" height="50" relative="1" as="geometry">
            <mxPoint x="843" y="482" as="sourcePoint" />
            <mxPoint x="843" y="442" as="targetPoint" />
          </mxGeometry>
        </mxCell>
        <mxCell id="c36mthqJlk9yNhMlftQ6-10" value="" style="endArrow=classic;startArrow=classic;html=1;rounded=0;fillColor=#f8cecc;strokeColor=#FF0000;startSize=1;endSize=1;" edge="1" parent="1">
          <mxGeometry width="50" height="50" relative="1" as="geometry">
            <mxPoint x="843" y="448" as="sourcePoint" />
            <mxPoint x="854" y="448" as="targetPoint" />
          </mxGeometry>
        </mxCell>
        <mxCell id="c36mthqJlk9yNhMlftQ6-11" value="" style="endArrow=none;html=1;rounded=0;strokeColor=#FF0000;" edge="1" parent="1">
          <mxGeometry width="50" height="50" relative="1" as="geometry">
            <mxPoint x="853" y="482" as="sourcePoint" />
            <mxPoint x="853" y="442" as="targetPoint" />
          </mxGeometry>
        </mxCell>
        <mxCell id="c36mthqJlk9yNhMlftQ6-12" value="" style="endArrow=none;html=1;rounded=0;strokeColor=#FF0000;" edge="1" parent="1">
          <mxGeometry width="50" height="50" relative="1" as="geometry">
            <mxPoint x="550" y="482" as="sourcePoint" />
            <mxPoint x="550" y="442" as="targetPoint" />
          </mxGeometry>
        </mxCell>
        <mxCell id="c36mthqJlk9yNhMlftQ6-13" value="&lt;span style=&quot;color: rgb(255, 0, 0);&quot;&gt;Control GPIO&lt;/span&gt;" style="text;strokeColor=none;align=center;fillColor=none;html=1;verticalAlign=middle;whiteSpace=wrap;rounded=0;" vertex="1" parent="1">
          <mxGeometry x="810" y="424" width="80" height="30" as="geometry" />
        </mxCell>
      </root>
    </mxGraphModel>
  </diagram>
</mxfile>
